<svg version="1" xmlns="http://www.w3.org/2000/svg" width="1886.667" height="1886.667" viewBox="0 0 1415.000000 1415.000000"><path d="M779.8 153.5c-.1.1-3.3.5-7.1.9-8.2.7-17.5 2.2-27.1 4.2-3.9.9-8 1.7-9 1.9-7.2 1.6-29.6 9.1-42.1 14.2-34.5 14.2-62.1 30.1-129.5 74.8-50.5 33.5-65.1 42.7-84.5 53.5-12.3 6.8-43.4 22-45.1 22-.3 0-2 .6-3.7 1.4-8.8 4-34.6 11.8-43.5 13.2-2 .3-5.5.9-7.7 1.4-10.5 2.3-36.9 3.2-52.5 1.7-9.5-.8-22.7-3.4-37-7.2-10.4-2.7-26.6-9.5-50.5-21.1-8.2-4-15.1-7.1-15.3-7-.3.3.3 3.3 2.9 14.1.5 2.2 1.1 5.1 1.3 6.5.2 1.4 1 4.7 1.6 7.5.6 2.7 1.4 6.1 1.6 7.5.3 1.4.9 4.1 1.4 6 .5 1.9 1.1 4.8 1.4 6.4 2.2 12.6 2.5 13.1 8 15 10.3 3.7 25.2 11.9 42.4 23.3 19.3 12.8 36.4 22 42.7 22.8 9.7 1.4 23.5 4.3 30.5 6.6 3 .9 7.8 2 10.5 2.3 2.8.4 6.1.8 7.5 1.1 1.4.3 4.1.7 6 1 11.3 1.8 28.2 6.1 39 10 6.3 2.3 27.6 13.1 39 19.8 5.2 3.1 9.6 5.5 9.7 5.3.2-.1 2.3-5.3 4.7-11.5l4.4-11.2-2.3-5.4c-2.7-6-5.1-14.1-6-20-.7-4.5-.8-21.9-.1-25.1.2-1.2.7-3.7 1-5.5 2.4-14.5 9.3-30.8 17.8-42.4 10.5-14.3 37.3-32.9 62.8-43.6 16.4-6.9 27-9.9 35.9-10.4 10.6-.6 21.4-1.6 22.1-2 1.2-.7 20.9-1.8 33.5-1.8 12.1 0 30 .9 34.9 1.9 1.1.2 4.1.7 6.6 1 16.5 2.1 41 10.5 55.1 19l5.7 3.4 4.3-1.9c17-7.5 31.1.7 35.1 20.4.8 4.3 1.8 6 4.3 7.9 5.4 4.1 16.5 16.1 21 22.5 7.6 10.9 11.2 22.8 11.2 37.1.1 7.4-.3 11.6-2.1 23-1.4 8.8-7.4 26.9-11.9 35.8-3.5 6.8-10.9 15.3-17.6 20.2-3.5 2.5-6.9 4.9-7.7 5.5-.7.5-1.6 3.7-2 7-1.7 17.1-11.9 27.3-30.4 30.6-6.5 1.1-7 1.4-7.1 3.8-.3 9.7-6.3 23.9-12.7 29.8-3.4 3.2-7.4 5-14.7 6.7-6.7 1.5-5.7 2.2 4.4 3 5.5.4 8.1 2.1 8.1 5.4 0 1.6-5.2 9.5-8.9 13.5-2.9 3.2-10 7.1-14.7 8.1-3.2.7-7.8 6.6-5.2 6.6.7.1 15.5.2 32.8.4 17.3.2 37.5.7 44.8 1.1 8.5.5 13.7.4 14.5-.3 2.3-1.9 13.9-5.3 20.1-5.9 3.3-.3 8.8-1.6 12.1-2.9 3.3-1.3 8-2.8 10.5-3.4 2.4-.7 6.9-2.4 10-3.9 3-1.5 7.8-3.4 10.5-4.1 2.8-.7 7.9-2.7 11.5-4.5 3.6-1.8 9.4-3.9 13-4.6 3.6-.6 9.7-2.4 13.5-3.9 7.9-3.2 14-4.9 19.4-5.6 5.8-.7 6.3-.9 13.1-4.1 3.6-1.6 9.2-3.8 12.5-4.7 3.3-1 9.4-3.1 13.5-4.6 4.1-1.6 9.3-3.2 11.5-3.6 2.2-.4 5.6-1.5 7.5-2.5 1.9-1 6-2.9 9.1-4.1l5.6-2.3-1.2-5c-.7-2.8-1.7-7.5-2.4-10.5-.6-3-2.3-10.7-3.7-17-1.4-6.3-2.8-12.6-3-14-.3-1.3-1.2-5.6-2-9.5-.9-3.8-2.6-12-3.9-18-1.3-6.1-3.7-16.9-5.3-24-1.6-7.2-3.3-14.8-3.8-17-.4-2.2-.8-4.2-.9-4.5-.7-2.6-2.2-9.7-3.1-14-.3-1.4-.7-3.3-1-4.2-.3-1-.8-3-1-4.5-.7-3.7-7.2-33.7-8.4-38.8-.9-3.5-8.3-37.5-9.4-43-.3-1.1-1-4.3-1.6-7-.6-2.8-1.4-6.1-1.6-7.5-.2-1.4-.9-4.3-1.4-6.5-.9-3.6-6.2-28-12.6-57.5-1.3-6.3-2.8-13.3-3.4-15.5-.5-2.2-1.9-8.5-3.1-14-1.2-5.5-2.5-11.4-2.8-13-.6-2.5-1.9-3.6-8.1-6.7-23.1-11.3-55.1-21.2-75.5-23.4-2.7-.3-6.1-.8-7.5-1.1-2.6-.6-38.6-1.4-39.2-.8z"/><path d="M633.7 288.6c-.1.1-5.1.4-11.1.8s-11.2.8-11.5 1c-.6.4-7.7 1.1-22.1 2.1-9.4.7-12.8 1.6-27 7.2-26.6 10.4-51.9 26.3-64.7 40.8-6.8 7.6-15.2 23.8-18 35-4.1 16.1-4.6 29.6-1.7 45 .3 1.6 2.2 6.7 4.1 11.2l3.5 8.3-5.8 14.7c-3.2 8.2-5.9 15-6 15.2-.2.2-4.5-2.1-9.6-5.2-14.6-8.6-24.7-14.1-32.3-17.7-7.4-3.4-19-8-21.5-8.5-.8-.2-3.5-.8-6-1.5s-5.4-1.4-6.5-1.6c-1.8-.4-17.1-3.3-20.5-3.9-.8-.1-4-.6-7-1-3-.3-7.7-1.4-10.5-2.3-2.7-.9-5.2-1.7-5.5-1.7-.3-.1-3-.7-6-1.3-3-.6-7.1-1.4-9-1.7-1.9-.4-5.3-1-7.5-1.4-2.2-.5-4.7-.9-5.5-.8-3.3.1-23.5-10.8-39.3-21.2-22.2-14.7-30.3-19.2-41.7-23.6-5.2-2.1-12.4-5.4-16-7.5-11-6.3-27.9-12.1-40.5-13.7-10.2-1.3-31.5-.8-47.5 1.1-10.2 1.3-13.6 1.7-14.9 2.2-.7.2-5.2.7-10 1-4.7.3-9.8.9-11.3 1.4-1.5.5-4.3.6-6.2.3-2-.3-5.7.2-8.9 1.2-10.4 3.3-18.8 13.9-21.1 26.7-.2 1.5-.7 3.2-1.1 3.8-1.1 1.8-5.9 3.8-13.8 5.8-13.1 3.4-21.1 11.4-26.4 26.3-3.8 10.8-4.2 14.1-2.7 22.1 2.7 14.3 13.3 26.3 31.1 35.2 11.7 5.9 24.1 8.9 70.8 17 13.6 2.4 21.5 6.6 33.4 17.5 8.2 7.6 13.8 10.6 23.6 12.6 9.2 1.8 11 2.5 22 7.6 12.5 5.9 21.2 8 38.8 9.3 5.2.4 9.4 3.2 19.7 13 5.5 5.2 14.8 11.4 20.5 13.6 2.8 1.1 2.9 1.3 1.2 2.4-12.2 7.6-20.8 13.9-27.3 20.1-7.9 7.5-7.9 7.5-9.4 5.3-4.4-6.7-9.6-9.9-21.4-13.4-11.5-3.3-11.6-3.3-10.4 1.8 1.9 8.3 2 7.8-1.4 6.6-6.7-2.4-12.8-.5-29.3 8.9-8.5 4.8-15.4 9.1-15.5 9.4 0 .3.6.6 1.3.6 2.5.1 25.8 5 26.3 5.6.2.2-1.1.4-3 .5-4.7.2-11.8 3.7-14.3 7-1.9 2.7-4.4 8.7-3.8 9.4.1.1.5 1.9.8 3.8.3 1.9 2.9 8.4 5.9 14.4l5.4 10.9 3.7-7.7c2-4.3 3.7-8.3 3.7-8.8 0-.6.7-.7 1.6-.4.9.3 2.7.6 4.1.6h2.5l-3 2.5c-3.7 3.1-6.2 8.3-6.2 12.9 0 4.7 4.8 16.8 6.4 15.9.6-.4-.8 1.5-3.2 4.2-6.4 7.3-8.6 15.6-8.6 31.7.1 12.3 0 12.6-2 12.1-1.2-.2-7.9-.6-15.1-.8-7.1-.1-14.5-.8-16.4-1.4-2.4-.7-4.8-.7-8 0-5.2 1.1-18.1 4.9-19.4 5.7-.5.2 1.1 2.1 3.5 4.2 6.1 5.3 10.6 9.4 8.8 8.2-3.2-2.2-15.7-5-21.6-4.7-6.5.3-15 3.9-17 7.2-2.1 3.6-3.7 12.6-3.1 18.5.3 3.3.8 6.2 1.1 6.5.3.4 1.6-.3 2.9-1.5 7.5-7 16.7-5 29.2 6.2l5 4.5-5.5 2.5c-6.6 2.9-8.4 3.2-17.6 2.2-10.3-1.1-13.4.5-22.6 11.8l-2.4 2.8-4.6-4.5c-6.5-6.4-8.8-11.8-9.5-22-.7-10.5 1.1-17.1 9.8-35.4 10-21 11.7-26 12.6-37.8 1.6-21.4-10.4-41.1-30.7-50.3-4.1-1.9-7.9-3.2-10.5-3.8-.5-.1-2.8-.6-5-1.1-4.3-1-10.5-1-17 .1-2.2.4-5.3.9-7 1.1-1.6.3-4.1.7-5.5 1-1.4.3-5.4 1-9 1.6-3.5.5-6.6 1.2-6.8 1.4-.2.2 2 1.6 5 3.1 8.5 4.3 26.1 13.6 29 15.4 4.2 2.5 10.6 8.7 13.3 12.9 7.5 11.3.9 28.6-19.9 52.1-16.8 18.9-28.1 40.6-33.1 63-1.3 6.2-1.3 16.2-.1 44.5 1 21.2 3.1 30.7 8.6 39 2.3 3.4 5.4 10.8 5.3 12.5 0 .3.3 1.4.7 2.6.5 1.1 1.1 3.7 1.4 5.7 3.4 21.1 10.4 35.1 21.1 42.3 2 1.3 2 2.4 2 47.9v46.6l4.8 4.7 4.8 4.7H86c31.4 0 36-.2 36-1.5.1-1.3.2-1.3 1 .1.6 1 2.2 1.5 4.7 1.4 2.8-.1 7.2 1.5 16.8 6.3 47.5 23.5 48.8 24 55.9 21.2 1.8-.6 2.6-.6 2.6.1 0 .6-1.8 7.5-4 15.5-2.1 7.9-4.2 16-4.6 18l-.7 3.6 5.4-.2c3-.1 6.4-.1 7.6-.1l2.1.1v61.8c0 33.9.1 62.2.1 62.7.1.7 14.1 1 41.9 1l41.7-.1 5.5 2.7c3 1.5 10.5 5 16.5 7.9 6.1 2.9 15.5 7.4 21 10 11.4 5.5 14.2 6.7 35.2 16l15.2 6.8-1.9-4.7c-1-2.5-4.9-12.5-8.8-22.1-9.6-24.2-9.3-22.2-3-19.1l5.3 2.6h47.9c52.9 0 51 .2 61.3-6.7 2.3-1.5 4.4-2.8 4.6-2.8.3 0 .4 1.7.2 3.8-.2 2.2 0 4.3.3 4.8.4.6 17.2.9 41 .9 39.6 0 40.2 0 40.3-2 0-2 0-2 1 0s2 2 81.6 2c79.5 0 80.6-.1 81.3-2 .7-2 .7-2 1.3 0 .7 2 1.5 2 38.9 2h38.3l1.8-7c1-3.9 2-8.1 2.3-9.5.3-1.4.7-3.3 1-4.2.3-.9.7-2.5.9-3.5 1.3-6.3 8.7-35.8 9.1-36.2.2-.2.4 10.1.3 23v30.4l.1 7h76.9c42.3 0 77.3-.3 77.6-.7.4-.4.8-19.3 1-42 .3-46.9.4-52.9 1.2-50.8.3.8 1.1 2.8 1.9 4.5.7 1.6 2.6 6.2 4.2 10.1l3 7.1v34.4c0 18.9.1 35.1.1 35.9.1 1.3 5.2 1.5 40 1.5 22 0 40.3-.3 40.7-.7.4-.4.7-16.6.7-36l-.1-35.3 6-14.5c3.3-8 6.8-16.3 7.7-18.5 1-2.2 9.1-21.8 18.1-43.5 9-21.7 16.7-39.9 17.1-40.4.4-.5 2.8-1 5.3-1.1 2.6-.2 7.2-1.6 10.7-3.4 7.1-3.5 7-3.5 6.8-1.8-.1.6-.1 2.1 0 3.2.1 2 .8 2 40.6 2h40.5l.1-2.5c0-1.4.1-16.4.1-33.3 0-25.5.2-30.9 1.4-31.4.7-.3 10.9-.6 22.6-.7l21.3-.1V917h-22.7c-19.6 0-22.8-.2-22.8-1.5 0-.8.6-1.5 1.3-1.6.6 0 9.5-.1 19.7-.2 15.4-.2 19-.6 21.8-2 4.2-2.3 8.1-8.2 8.4-13 .1-2 .3-3.7.4-3.7.1 0 2.3.9 4.8 2.1 3.1 1.3 6.8 2.1 10.6 2 10.8 0 17.4-5.6 16.3-13.6-.4-2.8-.1-3.3 2-3.9 3.6-.9 6.6-6.1 6.3-10.8-.3-3 .1-4.1 2.1-5.4 1.4-.8 2.3-1.8 2-2.1-.3-.2-.2-1.7.3-3.3.9-3.3-1.4-9.1-5.3-13.1-6-6.3-21.2-13.8-28.5-14.2-3.4-.2-5.8-1.1-8.3-3-7.9-6-11.8-6.8-34.4-7.2-9.9-.2-19.3-.8-21-1.3-1.6-.5-5.7-1-9-1.1-7.9-.3-10.9-1.7-18-8.3-3.3-3.1-7.4-6.9-9.1-8.4-1.7-1.6-7.1-7.4-11.9-12.9-13.1-15-22.9-24.3-34-32.2-15.1-10.7-15.5-11.2-14.9-17 1-9.3 1.2-12.9 1.3-20.8l.1-8 10.3-6.6c5.6-3.7 14.1-8.8 18.9-11.4 4.7-2.6 10.9-6.7 13.6-9.1l5-4.4 6.6 6.5c7.2 7 14.7 12.4 24.1 17.2 3.3 1.7 14.1 7.7 24 13.2 14.6 8.3 20.6 11 31.5 14.5 7.4 2.4 16.2 4.9 19.5 5.7 3.3.7 8 2.6 10.4 4.2 5 3.4 14.4 6.6 21.3 7.2 4.5.4 4.8.3 6.9-3.3 1.2-2 2.3-3.8 2.5-4 .3-.5 10.5 2.7 11.8 3.7 4 3.3 17.4 4.6 26.5 2.6 2.9-.6 3.1-.9 3.1-5v-4.3l13.8.1c7.7 0 14.8-.4 16.2-1 1.4-.6 2.8-1 3.1-.9 1.3.2 3.8-2.6 3.3-3.8-.3-.7 1-2.5 2.9-3.9 7.3-5.5 7.1-13.4-.4-20.7-6.3-6.1-11.3-7.3-31.9-7.5-18.4-.3-24.1-.8-35.5-3-3.8-.8-8.1-1.6-9.5-1.9-4.4-.9-8.9-2.4-14.3-5-10.3-4.9-14.6-5.9-26.8-6l-11.6-.1-2.9-3.5c-1.6-1.9-5.3-6.2-8.3-9.5-2.9-3.3-7.7-9.2-10.6-13.1-7.8-10.4-16.2-20-26.9-30.5-9.1-9-9.4-9.4-8.1-11.8 1.8-3.6 6.3-18.1 6.7-21.9.3-2.6 1.6-4 7.4-8.1 3.9-2.7 10.3-8 14.2-11.8 3.8-3.7 7.8-6.9 8.9-7.1 6.6-1 16-6.1 21.7-11.8 7.3-7.3 16.7-26.7 23.4-48.4 2-6.2 2.5-8.2 3.7-14.8.3-1.5.8-3.3 1.1-4.1.3-.8.7-5.8 1-11 .3-5.3.6-10.7.8-12.1.6-4.6 4.6-17.7 8.1-26.6 1.9-4.9 3.5-9.3 3.5-9.7 0-.4.8-2.7 1.8-5 1.1-2.3 2.8-6.7 4-9.7 1.1-3 3.2-8.4 4.6-12 7.4-19.4 10.8-38 8.3-47-1.8-7-8.3-18.5-13-23.2-5.2-5.2-16.8-11.4-23.2-12.4-2.2-.3-6.4-.6-9.5-.6-6.1 0-9.2.4-20 2.7-2.8.6-5.6 1-15 2-3.6.4-7.8.9-9.5 1.1-1.6.2-6.4.6-10.5.9-8 .7-14.6 2.1-15.4 3.3-.2.4-3.4.9-7 1-8.2.3-20.5 3.4-27.4 6.9-6.8 3.5-16.8 12.6-23.3 21.4-4.1 5.4-6.3 7.4-10.5 9.3-4.7 2.1-13.9 7.9-15.4 9.5-.3.3-2.7 2.3-5.3 4.4-6.6 5.4-16.6 15.6-25.6 26.2-11.9 14.2-16.1 18.4-19.5 19.4-1.7.5-8.7 1.2-15.6 1.6-6.8.3-12.6.7-12.7.9-.2.1 3.6 3.1 8.4 6.4 7.7 5.5 8.3 6.2 5.7 6.2-1.6 0-4.5-.4-6.3-1-4.2-1.2-3.4-.4 4.6 4.8l6.2 3.9-3.2 1c-1.8.5-5.2.8-7.6.7l-4.5-.1 6.4 3.2c5.9 3 6.2 3.3 4 4-1.4.4-4.2 1.9-6.4 3.4l-3.9 2.6 3.9.7c4.4.9 13.4 4.8 13.4 5.8 0 .9-3 3.5-5.9 5-1.2.6-5.3 1.4-9 1.7-3.6.3-8.2.6-10.1.8-1.9.2-4.8.4-6.5.4-2.9.1-2.8.3 5 8.1 6.5 6.5 7.7 8.2 6.5 9-.8.5-2.2 1-3 1-.8 0-4 .9-7 2-3.9 1.3-5.4 2.4-5.2 3.5.2.9-.8 2.9-2.2 4.6-1.5 1.7-2.6 3.5-2.6 4s-.8.9-1.9.9c-3.7 0-12.8 4.3-29.4 13.7-7.2 4.1-12.5 6.4-15.6 6.8-5.9.8-16 4-22.1 6.9-4.5 2.2-7.7 3.2-12.5 4.2-1.1.2-5.4 1.7-9.5 3.3-4.1 1.6-10.4 3.7-14 4.7-3.6 1-9 3.1-12 4.7-3 1.7-7.3 3.2-9.5 3.4-6.6.7-16.6 3.4-23.7 6.4-3.7 1.6-7.8 2.9-9.1 2.9-3.7 0-12.6 2.9-16.7 5.5-2 1.2-6.5 3-10.1 3.9-3.5.9-8.9 3-11.9 4.5-3 1.6-8.4 3.6-12 4.5-3.6.9-8.1 2.5-10 3.5-1.9 1-6.8 2.1-10.8 2.4-4.1.4-7.8.9-8.3 1.3-.5.3-1.7.7-2.8.9-1 .2-4 1.3-6.6 2.5-4.2 1.9-5.8 2.1-15.8 1.5-6.2-.3-29-.8-50.7-1-21.7-.3-39.7-.5-39.8-.5-.2 0 .8-1.4 2.2-3.1 1.5-1.7 3.4-4.5 4.2-6.2 1.5-2.8 1.5-3-.2-2.2-2.7 1.1-16.1 4.4-21.4 5.2-7.2 1.1-13.8.7-16.5-1.1-4.6-3-3.4-5.5 8-16.7 5.8-5.7 11-10.5 11.5-10.7.6-.2 1.4.8 2 2.3.6 1.5 3.6 5.3 6.8 8.4 9.1 9.1 17.6 10.3 26.9 4 3.5-2.4 11.9-12.7 11-13.5-.1-.1-3.8-.4-8.2-.7-10.5-.8-15-2.2-17.5-5.4-1.1-1.4-1.9-2.8-1.6-3 .4-.5 3-1 9.3-1.8 6-.8 14.8-3.2 18.8-5 7-3.2 14.2-18.5 14.8-31.4l.2-4.9h4.3c2.3-.1 4.6-.4 5.1-.6.4-.3 2.3-.8 4.2-1.1 8-1.4 17.3-7.4 20.2-13.1 1.8-3.7 3.7-12.3 3.7-17.4 0-3.6.3-4 5.7-7.1 14.9-8.5 25.2-24.8 31.2-48.9 4.4-17.8 4.9-36.9 1.3-48.6-3.6-11.8-14-25.6-28.4-37.9-4.1-3.5-4.7-4.6-5.3-9-.8-6.8-4.2-13.3-8.8-16.9-3.4-2.7-4.7-3.1-10-3.1-4.9 0-7.3.6-11.1 2.8l-4.8 2.7-7.4-4.6c-7.8-4.9-20.7-10.7-28.9-13.1-6.8-2-16.6-4.4-19-4.8-1.1-.1-3.6-.5-5.5-.9-10.5-1.8-23.7-2.8-39.3-3-7-.1-12.8-.1-13 0zM337.5 622.3c7.5 10.5 10 18.3 9 28-.4 4-.8 7.9-1 8.7-.1.8-.6 3.2-.9 5.3-.3 2.2-1.3 7-2.2 10.9-.9 3.9-1.7 7.5-1.8 8.2-3 14.1-2.8 13.8-6.1 13.1-1.6-.3-5.2-.8-8-1.1-2.7-.3-9.5-2.1-15-4-16.2-5.7-27.5-9.1-36.8-11-4.8-1-8.7-2.2-8.7-2.7s1.6-5.1 3.5-10.3c1.9-5.1 3.5-10.5 3.5-11.9 0-1.4.4-2.5 1-2.5.9 0 8.6-7.7 12.7-12.7 1.5-1.9 3.1-2.4 8.8-2.8 8.8-.7 15.9-4 28-12.8 5-3.6 9.5-6.6 10-6.6.6 0 2.4 1.8 4 4.2zm-97 43.4c-.1 1.6.2 4.5.6 6.5.4 2.5.3 3.8-.5 3.8-13.7.6-18 .9-22.6 1.5l-5.5.6 6-3c3.3-1.6 9.2-5 13-7.4 3.9-2.5 7.5-4.6 8.1-4.6.6-.1 1 1.1.9 2.6zm39.2 105.6c4.4 2.9 10.1 6.4 12.6 7.7 5.1 2.7 5.2 3.1 3.8 10.7-.6 2.7-1.2 7.2-1.6 9.8-.3 2.7-.7 5-.8 5-.3.3-24.7 7.5-25.1 7.5-.2 0 .2-1.7.9-3.8 3.1-9 4.2-28.2 2-38.5-.4-2-.5-3.7-.3-3.7s4 2.4 8.5 5.3zm799.7 18.2c.3.8.1 1.5-.4 1.5-.6 0-1-.7-1-1.5s.2-1.5.4-1.5.6.7 1 1.5zm-906.3 22.4c3.5 1 8.1 2.2 10.2 2.5 4 .7 4.8 2.1 1.8 3.1-2.3.7-5.6 4.9-9.7 12.2-3.3 6-4.5 6.3-14.3 3.9-3.1-.8-7.8-1.7-10.6-2.1-2.7-.3-6.4-1.4-8.1-2.4-1.7-1-5.5-2.6-8.5-3.5-6.4-2.1-15.9-6.6-15.9-7.6 0-.4 1.8-.4 3.9 0 7.9 1.4 15.8-.1 37.1-7 4-1.3 7.4-1.1 14.1.9zm962.4 28.5c1.6 1.1 3.2 2.4 3.5 2.7.3.3 1.2 1 2.1 1.5 3.5 1.9 11.9 9.7 11.9 11 0 .7-.5 2.5-1 4-1 2.4-1.2 2.5-2.8 1.1-.9-.8-4.2-2.6-7.2-4-4.6-2.2-6.9-2.6-14.5-2.5-4.9 0-9.9 0-11-.1-1.8-.1-2-.7-1.8-8.1.1-7.1-1-14-3.2-19.2-.6-1.6 14.8 7.2 24 13.6zm-436.5 75c0 5.1.1 5.4 3.3 6.6 8.3 3.1 7.4-1.1 7.3 34.7l-.1 31.8-10.2.1-10.2.2.2-38.6.2-38.6 2.5-.7c6.3-1.8 7-1.4 7 4.5zm100-.2c0 1.4-.9 1.8-4 1.8-2.8 0-4-.4-4-1.4 0-1.5 1.6-2.1 5.7-2.1 1.5 0 2.3.6 2.3 1.7zm155.1 22.7c14.5 2.3 34.5 3 49.2 1.9l3.7-.3.1 34.5c.1 19 .1 34.8 0 35.3-.3 1.9 2.5 10.7 4.9 15.7 4 8 11.6 15.2 21 19.9 4.9 2.4 8.7 3.8 9.8 3.4 1.5-.6 1.6-.5.2 1.3-.8 1-2 2.4-2.6 3.1-.6.6-1.4 3.1-1.8 5.4-.4 2.3-1 3.9-1.4 3.5-.3-.4-2-4.4-3.7-8.9l-3.1-8.2-45.9-.2c-25.3-.1-46.9-.2-48-.3-2-.1-2-.1.1-1 4.2-1.7 13.6-11.4 16.5-17.2 4.8-9.6 5.7-15.4 5.6-38.8 0-30.1-1.8-37.3-10.9-45.5-3.8-3.4-4.5-4.4-3.1-4.7 1-.3 2.1-.3 2.4-.2.3.2 3.4.8 7 1.3zm-415.6 56.2v49.4l-3 .5c-1.6.3-4 .4-5.2.2l-2.2-.4 2.2-3c2.2-2.9 2.2-3.3 2.4-48.1.1-24.9.2-45.7.2-46.4.1-1 3.7-2.3 5.1-1.7.3.1.5 22.4.5 49.5zm-87.4-24.9c.4 12 0 74-.5 74.5-1.1 1.1-82.6.9-82.7-.2 0-.6-.1-11.2-.2-23.7-.2-25.4-.7-23.8 7.3-24.4 17.4-1.1 24.2-2.4 33.5-6.2 5.8-2.3 14.8-8.6 18-12.4 2.3-2.7 4.7-3.9 12.9-6.4 12.5-3.9 11.6-3.8 11.7-1.2zm356 11.8c.1.3.2 2.1.3 4l.1 3.5-8.1.1-8.1.1-.1-3.8c-.1-2.8.2-3.8 1.5-4.1 2.8-.5 14.3-.3 14.4.2zm-598.8 69c.3 1.1.1 1.8-.4 1.4-.5-.3-.9-1.2-.9-2 0-2 .7-1.7 1.3.6zm287.4-1c-.1.3-.9 1.7-1.6 3.2l-1.4 2.7-4.3-3c-2.4-1.6-4.4-3.1-4.4-3.2 0-.1 2.7-.2 6-.2s5.9.2 5.7.5zm206.8.1c.3.3-.2 3.8-1.1 7.8-.9 4-1.8 7.1-1.9 6.9-.2-.2-.6-2.1-.9-4.3-.4-2.2-.9-5.6-1.2-7.6-.6-3.4-.4-3.6 1.9-3.5 1.5.1 2.9.4 3.2.7zm75.8 0c.3.2-.3 3.5-1.2 7.4l-1.6 7-1.3-5.3c-.6-2.9-1.9-6-2.7-6.9-.8-.8-1.3-1.8-1-2.2.4-.8 7.2-.8 7.8 0zm-136.1 117.1c1.5 6.2 5.3 21.6 8.4 34.3 4.8 20 7.1 34.5 5.4 34.5-.3 0-2.5-5.7-4.8-12.8-4.3-12.5-7.7-22.1-16.4-45.8l-4.4-12.1 3.8-3.9c2.1-2.1 3.8-4.2 3.8-4.6 0-.5.3-.8.8-.8.4 0 1.9 5.1 3.4 11.2z"/><path d="M326.5 628.6c-8.2 6.2-17.1 11.1-23 12.6-4.1 1.1-5 1.7-4.7 3.3.2 1.1 1.9 9.1 3.8 17.8 1.9 8.6 3.6 16.7 3.8 18 .3 1.2.5 2.4.6 2.7.2.3.2.8.1 1.2 0 .5 0 .8.2.8s3.5 1.1 7.3 2.4c6.6 2.3 19.4 4.3 19.4 3.1 0-.4 1.1-5.7 2.5-11.8 1.4-6.2 2.8-12.8 3.1-14.7.3-1.9 1-5.5 1.4-8 2-10.9-.5-22.1-6.7-29.7l-1.8-2.2-6 4.5zM667.6 579.6c-5.5 5.4-7.4 7.9-6.6 8.4 1.8 1.1 8.8.5 19-1.6l8.7-1.7-6.4-6.4c-3.5-3.4-6.4-6.3-6.6-6.3-.1 0-3.7 3.4-8.1 7.6zM585.2 1247.6c1 1 5.8 1.2 6.4.3.3-.5-1.2-.9-3.2-.9-2.1 0-3.5.3-3.2.6zM596 1247.4c0 .8 6 1.2 7.2.4.8-.4-.4-.8-2.9-.8-2.4 0-4.3.2-4.3.4zM606.8 1247.7c1.2.2 3.2.2 4.5 0 1.2-.2.2-.4-2.3-.4s-3.5.2-2.2.4zM614 1248.1c0 .5.5.7 1 .4.6-.3 1-.8 1-1.1 0-.2-.4-.4-1-.4-.5 0-1 .5-1 1.1zM617.8 1247.7c.7.3 1.6.2 1.9-.1.4-.3-.2-.6-1.3-.5-1.1 0-1.4.3-.6.6zM634.5 1248c.3.5.8 1 1.1 1 .2 0 .4-.5.4-1 0-.6-.5-1-1.1-1-.5 0-.7.4-.4 1zM637.8 1247.7c.6.2 1.8.2 2.5 0 .6-.3.1-.5-1.3-.5-1.4 0-1.9.2-1.2.5zM680.3 1247.6c1 1 9.7 1.3 9.7.3 0-.5-2.3-.9-5.2-.9-2.8 0-4.9.3-4.5.6zM702 1248c0 1.2 1.7 1.2 4.5 0 1.7-.7 1.5-.9-1.2-.9-1.8-.1-3.3.3-3.3.9zM772.8 1247.7c.7.3 1.6.2 1.9-.1.4-.3-.2-.6-1.3-.5-1.1 0-1.4.3-.6.6zM781.8 1247.7c.7.3 1.6.2 1.9-.1.4-.3-.2-.6-1.3-.5-1.1 0-1.4.3-.6.6zM542.8 1282.7c.6.2 1.8.2 2.5 0 .6-.3.1-.5-1.3-.5-1.4 0-1.9.2-1.2.5z"/></svg>